<svg xmlns="http://www.w3.org/2000/svg" id="Layer_1" data-name="Layer 1" width="810.47" height="300.29" viewBox="0 0 810.47 300.29"><path d="M186.52,174.55l15.83,13.68a51.18,51.18,0,0,1-10.79,11.15,66.8,66.8,0,0,1-17.09,9.72,57.14,57.14,0,0,1-21.42,4q-17.81,0-31.58-8.1a57.84,57.84,0,0,1-21.59-22.22q-7.83-14.12-7.83-31.94a67.16,67.16,0,0,1,4.5-24.65,62.6,62.6,0,0,1,12.69-20.24,58.55,58.55,0,0,1,19.52-13.68,62,62,0,0,1,25-4.94q17.82,0,29.6,7a61.56,61.56,0,0,1,19,17.1l-16,14.21a49.69,49.69,0,0,0-13.4-13.31q-7.65-5-19.17-5a34.57,34.57,0,0,0-20.24,5.94,38.7,38.7,0,0,0-13.14,15.74,49.83,49.83,0,0,0-4.58,21.32,46.84,46.84,0,0,0,4.58,20.87,37.6,37.6,0,0,0,12.87,14.94,33.92,33.92,0,0,0,19.43,5.58q10.44,0,16.83-3.06a34.87,34.87,0,0,0,10.25-7.11Q183.64,177.43,186.52,174.55Z" style="fill:#1c2951"></path><path d="M208.47,167.9a45.18,45.18,0,0,1,5.76-22.5A44,44,0,0,1,230.15,129q10.17-6.12,23.67-6.12T277.48,129A44,44,0,0,1,293.4,145.4a46.81,46.81,0,0,1,0,45,44.63,44.63,0,0,1-15.92,16.46q-10.17,6.21-23.66,6.21t-23.67-6.21a44.63,44.63,0,0,1-15.92-16.46A45.14,45.14,0,0,1,208.47,167.9Zm45.35,26.81q8.08,0,13.4-4.14a25.39,25.39,0,0,0,7.92-10.35,31.58,31.58,0,0,0,2.61-12.32,31,31,0,0,0-2.61-12.24,25.58,25.58,0,0,0-7.92-10.26q-5.31-4.12-13.4-4.13t-13.41,4.13a25.58,25.58,0,0,0-7.92,10.26,31,31,0,0,0-2.61,12.24,31.58,31.58,0,0,0,2.61,12.32,25.39,25.39,0,0,0,7.92,10.35Q245.72,194.71,253.82,194.71Z" style="fill:#1c2951"></path><path d="M303.48,112.48V90.16h21.23v22.32Zm0,97.7V125.79h21.23v84.39Z" style="fill:#1c2951"></path><path d="M333,210.18V125.79h20.34l.53,9.54a45,45,0,0,1,9.36-7.47q6.12-3.87,16-3.87,15.64,0,24,9.45t8.36,25.46v51.28H390.38v-51.1q0-7.92-4.41-12.42a15.31,15.31,0,0,0-11.42-4.49A18.65,18.65,0,0,0,360,148.64a23,23,0,0,0-5.75,15.84v45.7Z" style="fill:#1c2951"></path><path d="M673.24,145.76l37.24-55.6H675l-19.26,31.13-20-31.13H596.58l1.76,2.52-1.3-.54a79.13,79.13,0,0,0-28.88-5.21q-18.54,0-32.57,8.27a58.62,58.62,0,0,0-18,16.37,50.6,50.6,0,0,0-19.52-15q-14.47-6.39-33-6.39H419v120h45.88q18.36,0,33-6.57a52.25,52.25,0,0,0,19.51-14.84,57.56,57.56,0,0,0,18.28,16.37q14.12,8.1,32.48,8.1a68.72,68.72,0,0,0,30.93-6.82l-2.51,3.76h34.91l23.21-36.89,23.94,36.89H718.4ZM487.91,173.2q-8.64,8.91-24.11,8.91h-13V118.05h13q16.9,0,24.83,8.82t7.91,23.21Q496.54,164.3,487.91,173.2ZM615.35,182l-15.17-14.27a48.39,48.39,0,0,1-12.77,11.51q-6.48,3.78-17.1,3.78a31.89,31.89,0,0,1-16.73-4.32,28.72,28.72,0,0,1-11.06-12,37.41,37.41,0,0,1-3.87-17.19,36.73,36.73,0,0,1,3.78-16.82,29.19,29.19,0,0,1,10.88-11.88q7.11-4.4,17.19-4.41a30.93,30.93,0,0,1,16,4.14,40.2,40.2,0,0,1,12,11l15.77-15.9,23.1,33.17Z" style="fill:#f94a29"></path></svg>